Run_40002
nRows=4
nColumns=164

# SIMM Motion File Header:
name Run_40002
datacolumns 164
datarows 4
otherdata 1
range 2.80000000 2.83000000
endheader
time	pelvis_tilt	pelvis_list	pelvis_rotation	pelvis_tx	pelvis_ty	pelvis_tz	hip_flexion_r	hip_adduction_r	hip_rotation_r	knee_angle_r	ankle_angle_r	hip_flexion_l	hip_adduction_l	hip_rotation_l	knee_angle_l	ankle_angle_l	lumbar_extension	lumbar_bending	lumbar_rotation	arm_flex_r	arm_add_r	arm_rot_r	elbow_flex_r	pro_sup_r	arm_flex_l	arm_add_l	arm_rot_l	elbow_flex_l	pro_sup_l	subtalar_angle_r	mtp_angle_r	subtalar_angle_l	mtp_angle_l	wrist_flex_r	wrist_dev_r	wrist_flex_l	wrist_dev_l	LASI_tx	LASI_ty	LASI_tz	RASI_tx	RASI_ty	RASI_tz	LPSI_tx	LPSI_ty	LPSI_tz	RPSI_tx	RPSI_ty	RPSI_tz	RTH1_tx	RTH1_ty	RTH1_tz	RTH2_tx	RTH2_ty	RTH2_tz	RTH3_tx	RTH3_ty	RTH3_tz	LTH1_tx	LTH1_ty	LTH1_tz	LTH2_tx	LTH2_ty	LTH2_tz	LTH3_tx	LTH3_ty	LTH3_tz	RTB1_tx	RTB1_ty	RTB1_tz	RTB2_tx	RTB2_ty	RTB2_tz	RTB3_tx	RTB3_ty	RTB3_tz	LTB1_tx	LTB1_ty	LTB1_tz	LTB2_tx	LTB2_ty	LTB2_tz	LTB3_tx	LTB3_ty	LTB3_tz	RCAL_tx	RCAL_ty	RCAL_tz	RTOE_tx	RTOE_ty	RTOE_tz	RMT5_tx	RMT5_ty	RMT5_tz	LCAL_tx	LCAL_ty	LCAL_tz	LTOE_tx	LTOE_ty	LTOE_tz	LMT5_tx	LMT5_ty	LMT5_tz	LACR_tx	LACR_ty	LACR_tz	RACR_tx	RACR_ty	RACR_tz	CLAV_tx	CLAV_ty	CLAV_tz	C7_tx	C7_ty	C7_tz	RUA1_tx	RUA1_ty	RUA1_tz	RUA2_tx	RUA2_ty	RUA2_tz	RUA3_tx	RUA3_ty	RUA3_tz	RLEL_tx	RLEL_ty	RLEL_tz	RMEL_tx	RMEL_ty	RMEL_tz	LUA1_tx	LUA1_ty	LUA1_tz	LUA2_tx	LUA2_ty	LUA2_tz	LUA3_tx	LUA3_ty	LUA3_tz	LLEL_tx	LLEL_ty	LLEL_tz	LMEL_tx	LMEL_ty	LMEL_tz	RFAsuperior_tx	RFAsuperior_ty	RFAsuperior_tz	RFAradius_tx	RFAradius_ty	RFAradius_tz	RFAulna_tx	RFAulna_ty	RFAulna_tz	LFAsuperior_tx	LFAsuperior_ty	LFAsuperior_tz	LFAradius_tx	LFAradius_ty	LFAradius_tz	LFAulna_tx	LFAulna_ty	LFAulna_tz
      2.80000000	     -0.16382189	      8.74924291	     -0.31153091	      0.73220500	      0.95832881	     -0.31215544	     14.09292439	     -7.74504437	      1.24483300	    -96.00436895	    -10.92162157	     21.57372084	     16.45376247	      4.68113051	    -42.97544087	     19.36806517	    -14.13673051	    -13.87905945	     -3.53052554	    -22.04614939	    -23.09467420	    -10.10073061	     91.93242880	     72.73242534	    -15.49710846	    -28.25183558	     -3.83040239	     91.50554459	     91.78903741	      0.00000000	      0.00000000	      0.00000000	      0.00000000	      0.00000000	      0.00000000	      0.00000000	      0.00000000	      0.74028170	      0.99282071	     -0.44811366	      0.73850194	      0.96502004	     -0.17687792	      0.56835562	      1.00561650	     -0.36084966	      0.56209211	      0.99643153	     -0.26020928	      0.65885393	      0.76950955	     -0.14107537	      0.74262439	      0.67250808	     -0.15150966	      0.69276460	      0.55484590	     -0.18787520	      0.70319080	      0.80233636	     -0.48846537	      0.80551607	      0.69319041	     -0.46057875	      0.78471164	      0.56881629	     -0.43575524	      0.64330688	      0.37717729	     -0.23888305	      0.57885610	      0.39572933	     -0.17752947	      0.47588927	      0.36022663	     -0.23914455	      0.79815668	      0.34818816	     -0.34492500	      0.73327189	      0.27459755	     -0.41497664	      0.73037793	      0.20121082	     -0.34500809	      0.34816168	      0.45206034	     -0.25879669	      0.30981236	      0.22799284	     -0.24757834	      0.29480537	      0.28708549	     -0.16993651	      0.56781856	      0.10025701	     -0.34647800	      0.79634665	      0.06781703	     -0.31663039	      0.74684843	      0.05150465	     -0.41498077	      0.74097934	      1.43558884	     -0.50094933	      0.73669557	      1.47645198	     -0.16834352	      0.79470345	      1.39397730	     -0.29807278	      0.67478953	      1.48110041	     -0.33407969	      0.67675097	      1.41387445	     -0.08056463	      0.60034722	      1.35009803	     -0.09908757	      0.62494352	      1.30589252	     -0.03787777	      0.57378596	      1.21666867	      0.00461577	      0.55540322	      1.19513825	     -0.07196602	      0.69001971	      1.35527548	     -0.58278095	      0.62490961	      1.28507537	     -0.56533917	      0.62549107	      1.23024501	     -0.62401793	      0.60969405	      1.15120867	     -0.65502769	      0.58093455	      1.13897149	     -0.58338070	      0.66633517	      1.15870333	      0.01532736	      0.79608967	      1.07657474	     -0.01803151	      0.74893073	      1.02625301	      0.00400175	      0.70742504	      1.09947964	     -0.64280344	      0.83115082	      1.02510704	     -0.56363093	      0.80059431	      0.97479995	     -0.60433723
      2.81000000	     -0.44143138	      9.20648356	     -0.84121360	      0.72962048	      0.95680833	     -0.31121777	     18.39518862	     -7.98706321	      2.17993858	    -97.32576344	     -8.89497179	     19.05269181	     16.98645257	      4.76441373	    -42.45775461	     21.57881732	    -13.99073578	    -14.60710984	     -4.42597449	    -22.45863878	    -22.41600901	     -9.25947682	     89.34128453	     73.48283861	    -12.43285457	    -28.55199327	     -3.05316641	     90.51612748	     92.76158672	      0.00000000	      0.00000000	      0.00000000	      0.00000000	      0.00000000	      0.00000000	      0.00000000	      0.00000000	      0.73989952	      0.99086897	     -0.44670251	      0.73559429	      0.96413235	     -0.17514187	      0.56613879	      1.00543026	     -0.36148204	      0.55964683	      0.99576432	     -0.26088206	      0.65759230	      0.76825240	     -0.14503649	      0.75298947	      0.67462365	     -0.15005100	      0.71114662	      0.55544395	     -0.18591120	      0.69587323	      0.80100396	     -0.48864873	      0.79315282	      0.68817146	     -0.46004741	      0.76398584	      0.56308394	     -0.43522902	      0.67192527	      0.37798015	     -0.23929048	      0.60705410	      0.39365755	     -0.17762652	      0.50677796	      0.35367734	     -0.24002376	      0.76828157	      0.34198018	     -0.34343980	      0.70093085	      0.26975970	     -0.41370449	      0.69505238	      0.19778568	     -0.34430879	      0.37049271	      0.44078681	     -0.25947501	      0.34968101	      0.21397640	     -0.24886488	      0.33192723	      0.27176617	     -0.16990338	      0.52834302	      0.10147931	     -0.34673694	      0.75665290	      0.06745218	     -0.31710368	      0.70667481	      0.05132984	     -0.41421020	      0.74304374	      1.43286341	     -0.50116963	      0.73302878	      1.47550885	     -0.16851156	      0.79333320	      1.39271979	     -0.29726476	      0.67396056	      1.47965731	     -0.33520772	      0.67056176	      1.41339205	     -0.08193081	      0.59426608	      1.34942100	     -0.10320396	      0.61522717	      1.30669625	     -0.04083797	      0.56277119	      1.21734885	      0.00021611	      0.54682565	      1.19639447	     -0.07705396	      0.69466702	      1.35015245	     -0.58133603	      0.63278569	      1.27621272	     -0.56584678	      0.63870547	      1.22185723	     -0.62514288	      0.62852441	      1.14132118	     -0.65680123	      0.59661833	      1.12847643	     -0.58610723	      0.65248854	      1.15474632	      0.01319371	      0.77858483	      1.06532782	     -0.01599274	      0.72736512	      1.01802473	      0.00513867	      0.72708784	      1.09339124	     -0.64040397	      0.85039290	      1.02304417	     -0.55774616	      0.82300260	      0.97217278	     -0.60002873
      2.82000000	     -0.42945483	      9.47340239	     -1.43108896	      0.72783120	      0.95685015	     -0.31037839	     22.20057350	     -7.92411507	      3.04828400	    -97.62676076	     -7.34971657	     15.84514026	     17.31439109	      5.03797335	    -41.30749397	     23.38731903	    -14.08002561	    -15.05718434	     -5.26751510	    -23.14879509	    -21.81074081	     -8.50521173	     87.24003245	     74.08693172	     -9.71086431	    -28.55694020	     -2.78829223	     90.22540136	     94.24366404	      0.00000000	      0.00000000	      0.00000000	      0.00000000	      0.00000000	      0.00000000	      0.00000000	      0.00000000	      0.73966634	      0.99021188	     -0.44514160	      0.73304538	      0.96533524	     -0.17394430	      0.56476563	      1.00613346	     -0.36232516	      0.55790736	      0.99605344	     -0.26171315	      0.65609881	      0.76822571	     -0.15005528	      0.76349942	      0.67933249	     -0.14848020	      0.72984348	      0.55822678	     -0.18371078	      0.68952482	      0.80039948	     -0.48892156	      0.77994628	      0.68297413	     -0.45921218	      0.74320487	      0.55855004	     -0.43539697	      0.70089715	      0.38037965	     -0.24010529	      0.63554281	      0.39245975	     -0.17805394	      0.53992950	      0.34620900	     -0.24103195	      0.73737907	      0.33620182	     -0.34319398	      0.66773610	      0.26705854	     -0.41333874	      0.65924843	      0.19602525	     -0.34396204	      0.39300665	      0.42617477	     -0.26004326	      0.39199641	      0.19814767	     -0.24937391	      0.37034468	      0.25405200	     -0.17055591	      0.48884714	      0.10331915	     -0.34693619	      0.71719006	      0.06753021	     -0.31771501	      0.66673592	      0.05176067	     -0.41402472	      0.74561184	      1.43164720	     -0.50098215	      0.72963378	      1.47580983	     -0.16848282	      0.79209346	      1.39263259	     -0.29609886	      0.67331264	      1.47941230	     -0.33636030	      0.66437145	      1.41437768	     -0.08328537	      0.58800230	      1.35049436	     -0.10736807	      0.60525721	      1.30889651	     -0.04442624	      0.55121502	      1.21976841	     -0.00457381	      0.53770006	      1.19938137	     -0.08252572	      0.69983059	      1.34679825	     -0.58062297	      0.64022531	      1.26940862	     -0.56421388	      0.65059079	      1.21574516	     -0.62479092	      0.64631636	      1.13430561	     -0.65721578	      0.61210926	      1.12016021	     -0.58738367	      0.63784887	      1.15279534	      0.01048552	      0.76024587	      1.05677336	     -0.01523238	      0.70541255	      1.01242467	      0.00458817	      0.74583714	      1.09052665	     -0.63712445	      0.86932425	      1.02539628	     -0.55056099	      0.84572507	      0.97366399	     -0.59427851
      2.83000000	     -0.21605928	      9.42449905	     -1.92566422	      0.72683437	      0.95831707	     -0.30985427	     25.45103757	     -7.53152800	      3.56616805	    -96.93906021	     -5.95472013	     12.15296246	     17.33765621	      5.64344894	    -39.78274936	     24.55350692	    -14.33564983	    -15.05758649	     -6.11580564	    -24.20593533	    -21.28332463	     -7.97263208	     85.83862883	     74.10601446	     -7.37040036	    -28.30026503	     -2.91635125	     90.66093717	     95.89589316	      0.00000000	      0.00000000	      0.00000000	      0.00000000	      0.00000000	      0.00000000	      0.00000000	      0.00000000	      0.73916324	      0.99056193	     -0.44435302	      0.73095859	      0.96798229	     -0.17311839	      0.56426310	      1.00757792	     -0.36327815	      0.55695418	      0.99707127	     -0.26266359	      0.65622571	      0.76979262	     -0.15420273	      0.77359545	      0.68656185	     -0.14679687	      0.74793446	      0.56377398	     -0.18171243	      0.68371782	      0.80059430	     -0.48925347	      0.76645225	      0.67838673	     -0.45793348	      0.72383051	      0.55576810	     -0.43644283	      0.72967392	      0.38425907	     -0.24110400	      0.66374792	      0.39228820	     -0.17866512	      0.57418861	      0.33879940	     -0.24203915	      0.70585920	      0.33144811	     -0.34413555	      0.63420830	      0.26702780	     -0.41447648	      0.62332728	      0.19603793	     -0.34448297	      0.41585852	      0.40838794	     -0.26068735	      0.43756530	      0.18179374	     -0.25006186	      0.41034360	      0.23453940	     -0.17183023	      0.44950271	      0.10624341	     -0.34733067	      0.67769456	      0.06762813	     -0.31833340	      0.62712111	      0.05268005	     -0.41412465	      0.74828030	      1.43217944	     -0.50034408	      0.72642178	      1.47735017	     -0.16823268	      0.79101915	      1.39369403	     -0.29449467	      0.67300908	      1.48054277	     -0.33737789	      0.65819286	      1.41683413	     -0.08465056	      0.58161553	      1.35369882	     -0.11179825	      0.59531518	      1.31257886	     -0.04851551	      0.53907064	      1.22407410	     -0.00986616	      0.52805809	      1.20424784	     -0.08854896	      0.70619458	      1.34528009	     -0.58059928	      0.64748865	      1.26531766	     -0.56183251	      0.66101071	      1.21189338	     -0.62325463	      0.66247826	      1.13004040	     -0.65635164	      0.62703762	      1.11410881	     -0.58711148	      0.62229916	      1.15302956	      0.00734626	      0.74156643	      1.05166461	     -0.01541750	      0.68396820	      1.00983751	      0.00212287	      0.76324876	      1.09098351	     -0.63296561	      0.88719917	      1.03231672	     -0.54239661	      0.86788176	      0.97944834	     -0.58717971
